<svg xmlns:dc="http://purl.org/dc/elements/1.1/" xmlns:cc="http://creativecommons.org/ns#" xmlns:rdf="http://www.w3.org/1999/02/22-rdf-syntax-ns#" xmlns:svg="http://www.w3.org/2000/svg" xmlns="http://www.w3.org/2000/svg" xmlns:sodipodi="http://sodipodi.sourceforge.net/DTD/sodipodi-0.dtd" xmlns:inkscape="http://www.inkscape.org/namespaces/inkscape" viewBox="0 0 48 60.00000125" version="1.1" x="0px" y="0px"><g transform="translate(0,-1004.3622)"><path style="" d="m 24,1004.3622 a 23.999998,23.999998 0 0 0 -24,24 23.999998,23.999998 0 0 0 24,24 23.999998,23.999998 0 0 0 24,-24 23.999998,23.999998 0 0 0 -24,-24 z m -4.070312,8 a 0.50004994,0.50004994 0 0 1 0.507812,0.5078 l 0,0.4922 0.492188,0 a 0.50004994,0.50004994 0 1 1 0,1 l -0.492188,0 0,0.4941 a 0.50004994,0.50004994 0 1 1 -1,0 l 0,-0.4941 -0.492188,0 a 0.50004994,0.50004994 0 1 1 0,-1 l 0.492188,0 0,-0.4922 a 0.50004994,0.50004994 0 0 1 0.492188,-0.5078 z m 2.507812,0 a 0.5,0.5 0 0 1 0.5,0.5 0.5,0.5 0 0 1 -0.5,0.5 0.5,0.5 0 0 1 -0.5,-0.5 0.5,0.5 0 0 1 0.5,-0.5 z m -8,2 a 0.5,0.5 0 0 1 0.5,0.5 0.5,0.5 0 0 1 -0.5,0.5 0.5,0.5 0 0 1 -0.5,-0.5 0.5,0.5 0 0 1 0.5,-0.5 z m 18.992188,0 a 0.50004994,0.50004994 0 0 1 0.507812,0.5078 l 0,0.4922 0.492188,0 a 0.50004994,0.50004994 0 1 1 0,1 l -0.492188,0 0,0.4941 a 0.50004994,0.50004994 0 1 1 -1,0 l 0,-0.4941 -0.492188,0 a 0.50004994,0.50004994 0 1 1 0,-1 l 0.492188,0 0,-0.4922 a 0.50004994,0.50004994 0 0 1 0.492188,-0.5078 z m -1.992188,3 a 0.5,0.5 0 0 1 0.5,0.5 0.5,0.5 0 0 1 -0.5,0.5 0.5,0.5 0 0 1 -0.5,-0.5 0.5,0.5 0 0 1 0.5,-0.5 z m -11,0.5 6,0 0,5 0.5625,0 0,1.5 -1.0625,0 0,0.5 0,17.5 0.5,0 0,-17.5 1.0625,0 0,-2 1.4375,0 0,-2.5 1,0 0,2.5 1.5625,0 0,2 0.9375,0 0,17.5 0.5,0 0,-18 -0.9375,0 0,-1.5 2.4375,0 0,4 3,0 0,15.5 1.4375,0 0,1 -29.875,0 0,-1 1.4375,0 0,-12.5 4.5,0 0,12.5 0.5,0 0,-15 -1,0 0,-2 8,0 0,2 -1,0 0,15 0.5,0 0,-14.5 0.5,0 c 0.27613,-10e-5 0.49997,-0.2239 0.5,-0.5 l 0,-2 c -3e-5,-0.2762 -0.22387,-0.5 -0.5,-0.5 l -5,0 0,-4 3,0 0,-3 z m -9.007812,1.5 a 0.50004994,0.50004994 0 0 1 0.507812,0.5078 l 0,0.4922 0.492188,0 a 0.50004994,0.50004994 0 1 1 0,1 l -0.492188,0 0,0.4941 a 0.50004994,0.50004994 0 1 1 -1,0 l 0,-0.4941 -0.492188,0 a 0.50004994,0.50004994 0 1 1 0,-1 l 0.492188,0 0,-0.4922 a 0.50004994,0.50004994 0 0 1 0.492188,-0.5078 z m 26,1 a 0.50004994,0.50004994 0 0 1 0.507812,0.5078 l 0,0.4922 0.492188,0 a 0.50004994,0.50004994 0 1 1 0,1 l -0.492188,0 0,0.4941 a 0.50004994,0.50004994 0 1 1 -1,0 l 0,-0.4941 -0.492188,0 a 0.50004994,0.50004994 0 1 1 0,-1 l 0.492188,0 0,-0.4922 a 0.50004994,0.50004994 0 0 1 0.492188,-0.5078 z m -26.992188,3 a 0.5,0.5 0 0 1 0.5,0.5 0.5,0.5 0 0 1 -0.5,0.5 0.5,0.5 0 0 1 -0.5,-0.5 0.5,0.5 0 0 1 0.5,-0.5 z m 17.5625,3 0,1 1,0 0,-1 -1,0 z m 2,0 0,1 1,0 0,-1 -1,0 z m -13,2 0,1 3,0 0,-1 -3,0 z m 11,0 0,1 1,0 0,-1 -1,0 z m 2,0 0,1 1,0 0,-1 -1,0 z m -13,2 0,1 3,0 0,-1 -3,0 z m 11,0 0,1 1,0 0,-1 -1,0 z m 2,0 0,1 1,0 0,-1 -1,0 z m -13,2 0,1 3,0 0,-1 -3,0 z m 11,0 0,1 1,0 0,-1 -1,0 z m 2,0 0,1 1,0 0,-1 -1,0 z m -13,2 0,1 3,0 0,-1 -3,0 z m 11,0 0,1 1,0 0,-1 -1,0 z m 2,0 0,1 1,0 0,-1 -1,0 z m -13,2 0,1 3,0 0,-1 -3,0 z m 11,0 0,1 1,0 0,-1 -1,0 z m 2,0 0,1 1,0 0,-1 -1,0 z m -13,2 0,1 3,0 0,-1 -3,0 z m 11,0 0,1 1,0 0,-1 -1,0 z m 2,0 0,1 1,0 0,-1 -1,0 z m -13,2 0,1 3,0 0,-1 -3,0 z m 11,0 0,1 1,0 0,-1 -1,0 z m 2,0 0,1 1,0 0,-1 -1,0 z" fill="#000000" fill-opacity="1" fill-rule="evenodd" stroke="none"/></g></svg>