<?xml version="1.0" encoding="utf-8"?>
<!-- Generator: Adobe Illustrator 21.0.0, SVG Export Plug-In . SVG Version: 6.00 Build 0)  -->
<svg version="1.1" id="Layer_1" xmlns="http://www.w3.org/2000/svg" xmlns:xlink="http://www.w3.org/1999/xlink" x="0px" y="0px"
	 width="398px" height="227px" viewBox="0 0 398 227" style="enable-background:new 0 0 398 227;" xml:space="preserve">
<style type="text/css">
	.st0{clip-path:url(#SVGID_2_);fill:#2D2C2D;}
	.st1{clip-path:url(#SVGID_4_);fill:#2D2C2D;}
	.st2{clip-path:url(#SVGID_6_);fill:#2D2C2D;}
	.st3{clip-path:url(#SVGID_8_);fill:#2D2C2D;}
	.st4{clip-path:url(#SVGID_10_);fill:#2D2C2D;}
</style>
<g>
	<g>
		<g>
			<defs>
				<path id="SVGID_1_" d="M124.4,71v57.2c0,4,1.3,5.7,4,5.7c1.6,0,3,1.3,3,3c0,1.7-1.4,3-3,3c-6.7,0-10.4-4-10.4-11.7V71
					c0-1.7,1.5-3.2,3.2-3.2C123,67.8,124.4,69.3,124.4,71z"/>
			</defs>
			<use xlink:href="#SVGID_1_"  style="overflow:visible;fill:#2D2C2D;"/>
			<clipPath id="SVGID_2_">
				<use xlink:href="#SVGID_1_"  style="overflow:visible;"/>
			</clipPath>
			<polygon class="st0" points="128.8,139.9 131.4,132.8 131.4,139.9 			"/>
			<polygon class="st0" points="125.6,139.9 131.4,124 131.4,132.8 128.8,139.9 			"/>
			<polygon class="st0" points="122.4,139.9 131.4,115.2 131.4,124 125.6,139.9 			"/>
			<polygon class="st0" points="119.1,139.9 131.4,106.5 131.4,115.2 122.4,139.9 			"/>
			<polygon class="st0" points="118,134.4 131.4,97.7 131.4,106.5 119.1,139.9 118,139.9 			"/>
			<polygon class="st0" points="118,125.6 131.4,88.9 131.4,97.7 118,134.4 			"/>
			<polygon class="st0" points="118,116.8 131.4,80.2 131.4,88.9 118,125.6 			"/>
			<polygon class="st0" points="118,108.1 131.4,71.4 131.4,80.2 118,116.8 			"/>
			<polygon class="st0" points="118,99.3 129.4,68 131.4,68.7 131.4,71.4 118,108.1 			"/>
			<polygon class="st0" points="118,90.5 126.3,67.8 128.8,67.8 129.4,68 118,99.3 			"/>
			<polygon class="st0" points="118,81.8 123.1,67.8 126.3,67.8 118,90.5 			"/>
			<polygon class="st0" points="118,73 119.9,67.8 123.1,67.8 118,81.8 			"/>
			<polygon class="st0" points="119.9,67.8 118,73 118,67.8 			"/>
		</g>
	</g>
	<g>
		<g>
			<defs>
				<path id="SVGID_3_" d="M176,116.3c0,16.4-8,24.1-21,24.1c-12.9,0-21-7.7-21-24.1c0-16.4,8.1-24,21-24
					C167.9,92.2,176,99.8,176,116.3z M169.4,116.3c0-12.6-5.3-18.2-14.5-18.2s-14.5,5.6-14.5,18.2c0,12.8,5.3,18.3,14.5,18.3
					S169.4,129.1,169.4,116.3z"/>
			</defs>
			<use xlink:href="#SVGID_3_"  style="overflow:visible;fill:#2D2C2D;"/>
			<clipPath id="SVGID_4_">
				<use xlink:href="#SVGID_3_"  style="overflow:visible;"/>
			</clipPath>
			<polygon class="st1" points="169.2,134.6 169.4,133.9 169.4,134.6 			"/>
			<polygon class="st1" points="166,134.6 169.4,125.2 169.4,133.9 169.2,134.6 			"/>
			<polygon class="st1" points="162.8,134.6 169.4,116.4 169.4,125.2 166,134.6 			"/>
			<polygon class="st1" points="159.6,134.6 169.4,107.6 169.4,116.4 162.8,134.6 			"/>
			<polygon class="st1" points="156.4,134.6 169.4,98.9 169.4,107.6 159.6,134.6 			"/>
			<polygon class="st1" points="153.2,134.6 166.6,98 169.4,98 169.4,98.9 156.4,134.6 			"/>
			<polygon class="st1" points="150,134.6 163.3,98 166.6,98 153.2,134.6 			"/>
			<polygon class="st1" points="146.8,134.6 160.1,98 163.3,98 150,134.6 			"/>
			<polygon class="st1" points="143.5,134.6 156.9,98 160.1,98 146.8,134.6 			"/>
			<polygon class="st1" points="140.4,134.4 153.7,98 156.9,98 143.5,134.6 140.4,134.6 			"/>
			<polygon class="st1" points="140.4,125.7 150.5,98 153.7,98 140.4,134.4 			"/>
			<polygon class="st1" points="140.4,116.9 147.3,98 150.5,98 140.4,125.7 			"/>
			<polygon class="st1" points="140.4,108.1 144.1,98 147.3,98 140.4,116.9 			"/>
			<polygon class="st1" points="140.4,99.4 140.9,98 144.1,98 140.4,108.1 			"/>
			<polygon class="st1" points="140.9,98 140.4,99.4 140.4,98 			"/>
			<polygon class="st1" points="173.5,140.4 176,133.7 176,140.4 			"/>
			<polygon class="st1" points="170.3,140.4 176,124.9 176,133.7 173.5,140.4 			"/>
			<polygon class="st1" points="167.1,140.4 176,116.2 176,124.9 170.3,140.4 			"/>
			<polygon class="st1" points="163.9,140.4 176,107.4 176,116.2 167.1,140.4 			"/>
			<polygon class="st1" points="160.7,140.4 176,98.6 176,107.4 163.9,140.4 			"/>
			<polygon class="st1" points="157.5,140.4 174.9,92.6 176,93 176,98.6 160.7,140.4 			"/>
			<polygon class="st1" points="154.3,140.4 171.9,92.2 173.8,92.2 174.9,92.6 157.5,140.4 			"/>
			<polygon class="st1" points="151,140.4 168.7,92.2 171.9,92.2 154.3,140.4 			"/>
			<polygon class="st1" points="147.8,140.4 165.5,92.2 168.7,92.2 151,140.4 			"/>
			<polygon class="st1" points="144.6,140.4 162.3,92.2 165.5,92.2 147.8,140.4 			"/>
			<polygon class="st1" points="141.4,140.4 159.1,92.2 162.3,92.2 144.6,140.4 			"/>
			<polygon class="st1" points="138.2,140.4 155.8,92.2 159.1,92.2 141.4,140.4 			"/>
			<polygon class="st1" points="136.2,140.4 135.1,140 152.6,92.2 155.8,92.2 138.2,140.4 			"/>
			<polygon class="st1" points="135.1,140 133.9,139.6 133.9,134.7 149.4,92.2 152.6,92.2 			"/>
			<polygon class="st1" points="133.9,125.9 146.2,92.2 149.4,92.2 133.9,134.7 			"/>
			<polygon class="st1" points="133.9,117.2 143,92.2 146.2,92.2 133.9,125.9 			"/>
			<polygon class="st1" points="133.9,108.4 139.8,92.2 143,92.2 133.9,117.2 			"/>
			<polygon class="st1" points="133.9,99.6 136.6,92.2 139.8,92.2 133.9,108.4 			"/>
			<polygon class="st1" points="136.6,92.2 133.9,99.6 133.9,92.2 			"/>
		</g>
	</g>
	<g>
		<g>
			<defs>
				<path id="SVGID_5_" d="M210.1,94.7c1.7-3.1,3.9-5.4,8.9-5.4c1.6,0,2.9,1.3,2.9,2.9c0,1.6-1.3,2.9-2.9,2.9c-3,0-4.1,1.5-4.8,3.1
					c2.3,2.8,3.6,6.5,3.6,10.8c0,10.2-6.8,16.8-18.4,16.8c-4.3,0-8-0.9-10.8-2.5c-1.1,0.9-1.8,2-1.8,3.6c0,2.1,1.4,4.2,7.4,4.2h10.3
					c9.7,0,17.5,4.2,17.5,13.6c0,10.4-9.4,14.4-21.5,14.4c-10.3,0-21.3-3-21.3-14c0-4.6,2.9-8.2,7.6-10.1c-3.7-1.2-6.2-4.2-6.2-8.1
					c0-3,1.6-5.4,4-7c-2.4-3-3.6-6.6-3.6-10.9c0-10.2,6.8-16.8,18.4-16.8C203.5,92.2,207.3,93.1,210.1,94.7z M204.5,137.2h-10.4
					c-5.8,1-8.4,4-8.4,8c0,6.1,7,8.4,14.9,8.4c7.9,0,14.9-2.3,14.9-8.8C215.5,139.3,211,137.2,204.5,137.2z M211.3,109
					c0-6.6-4.2-11-11.9-11c-7.7,0-11.9,4.4-11.9,11s4.2,11,11.9,11C207.1,120.1,211.3,115.7,211.3,109z"/>
			</defs>
			<use xlink:href="#SVGID_5_"  style="overflow:visible;fill:#2D2C2D;"/>
			<clipPath id="SVGID_6_">
				<use xlink:href="#SVGID_5_"  style="overflow:visible;"/>
			</clipPath>
			<polygon class="st2" points="210.3,120.1 211.3,117.3 211.3,120.1 			"/>
			<polygon class="st2" points="208.6,120.1 211.3,112.7 211.3,117.3 210.3,120.1 			"/>
			<polygon class="st2" points="206.9,120.1 211.3,108.1 211.3,112.7 208.6,120.1 			"/>
			<polygon class="st2" points="205.3,120.1 211.3,103.5 211.3,108.1 206.9,120.1 			"/>
			<polygon class="st2" points="203.6,120.1 211.3,98.9 211.3,103.5 205.3,120.1 			"/>
			<polygon class="st2" points="201.9,120.1 209.9,98 211.3,98 211.3,98.9 203.6,120.1 			"/>
			<polygon class="st2" points="200.2,120.1 208.3,98 209.9,98 201.9,120.1 			"/>
			<polygon class="st2" points="197,120.1 205.1,98 208.3,98 200.2,120.1 			"/>
			<polygon class="st2" points="193.8,120.1 201.8,98 205.1,98 197,120.1 			"/>
			<polygon class="st2" points="190.6,120.1 198.6,98 201.8,98 193.8,120.1 			"/>
			<polygon class="st2" points="187.5,119.7 195.4,98 198.6,98 190.6,120.1 187.5,120.1 			"/>
			<polygon class="st2" points="187.5,111 192.2,98 195.4,98 187.5,119.7 			"/>
			<polygon class="st2" points="187.5,102.2 189,98 192.2,98 187.5,111 			"/>
			<polygon class="st2" points="189,98 187.5,102.2 187.5,98 			"/>
			<polygon class="st2" points="214.9,153.6 215.5,151.8 215.5,153.6 			"/>
			<polygon class="st2" points="213.2,153.6 215.5,147.2 215.5,151.8 214.9,153.6 			"/>
			<polygon class="st2" points="211.5,153.6 215.5,142.6 215.5,147.2 213.2,153.6 			"/>
			<polygon class="st2" points="209.8,153.6 215.5,138 215.5,142.6 211.5,153.6 			"/>
			<polygon class="st2" points="208.1,153.6 214.1,137.2 215.5,137.2 215.5,138 209.8,153.6 			"/>
			<polygon class="st2" points="206.4,153.6 212.5,137.2 214.1,137.2 208.1,153.6 			"/>
			<polygon class="st2" points="204.8,153.6 210.8,137.2 212.5,137.2 206.4,153.6 			"/>
			<polygon class="st2" points="203.1,153.6 209.1,137.2 210.8,137.2 204.8,153.6 			"/>
			<polygon class="st2" points="201.4,153.6 207.4,137.2 209.1,137.2 203.1,153.6 			"/>
			<polygon class="st2" points="199.7,153.6 205.7,137.2 207.4,137.2 201.4,153.6 			"/>
			<polygon class="st2" points="198,153.6 204,137.2 205.7,137.2 199.7,153.6 			"/>
			<polygon class="st2" points="196.3,153.6 202.4,137.2 204,137.2 198,153.6 			"/>
			<polygon class="st2" points="194.7,153.6 200.7,137.2 202.4,137.2 196.3,153.6 			"/>
			<polygon class="st2" points="193,153.6 199,137.2 200.7,137.2 194.7,153.6 			"/>
			<polygon class="st2" points="191.3,153.6 197.3,137.2 199,137.2 193,153.6 			"/>
			<polygon class="st2" points="189.6,153.6 195.6,137.2 197.3,137.2 191.3,153.6 			"/>
			<polygon class="st2" points="187.9,153.6 193.9,137.2 195.6,137.2 189.6,153.6 			"/>
			<polygon class="st2" points="186.2,153.6 185.7,153.4 185.7,151 190.7,137.2 193.9,137.2 187.9,153.6 			"/>
			<polygon class="st2" points="185.7,142.2 187.5,137.2 190.7,137.2 185.7,151 			"/>
			<polygon class="st2" points="187.5,137.2 185.7,142.2 185.7,137.2 			"/>
			<polygon class="st2" points="221.2,159.2 222,157 222,159.2 			"/>
			<polygon class="st2" points="219.6,159.2 222,152.4 222,157 221.2,159.2 			"/>
			<polygon class="st2" points="217.9,159.2 222,147.8 222,152.4 219.6,159.2 			"/>
			<polygon class="st2" points="216.2,159.2 222,143.2 222,147.8 217.9,159.2 			"/>
			<polygon class="st2" points="214.5,159.2 222,138.6 222,143.2 216.2,159.2 			"/>
			<polygon class="st2" points="212.8,159.2 222,134 222,138.6 214.5,159.2 			"/>
			<polygon class="st2" points="211.1,159.2 222,129.4 222,134 212.8,159.2 			"/>
			<polygon class="st2" points="209.4,159.2 222,124.8 222,129.4 211.1,159.2 			"/>
			<polygon class="st2" points="207.8,159.2 222,120.2 222,124.8 209.4,159.2 			"/>
			<polygon class="st2" points="206.1,159.2 222,115.6 222,120.2 207.8,159.2 			"/>
			<polygon class="st2" points="204.4,159.2 222,111 222,115.6 206.1,159.2 			"/>
			<polygon class="st2" points="202.7,159.2 222,106.4 222,111 204.4,159.2 			"/>
			<polygon class="st2" points="201,159.2 222,101.8 222,106.4 202.7,159.2 			"/>
			<polygon class="st2" points="199.3,159.2 222,97.2 222,101.8 201,159.2 			"/>
			<polygon class="st2" points="197.7,159.2 222,92.6 222,97.2 199.3,159.2 			"/>
			<polygon class="st2" points="196,159.2 221.6,89.3 222,89.3 222,92.6 197.7,159.2 			"/>
			<polygon class="st2" points="194.3,159.2 219.9,89.3 221.6,89.3 196,159.2 			"/>
			<polygon class="st2" points="192.6,159.2 218.2,89.3 219.9,89.3 194.3,159.2 			"/>
			<polygon class="st2" points="190.9,159.2 216.5,89.3 218.2,89.3 192.6,159.2 			"/>
			<polygon class="st2" points="189.2,159.2 214.8,89.3 216.5,89.3 190.9,159.2 			"/>
			<polygon class="st2" points="187.5,159.2 213.1,89.3 214.8,89.3 189.2,159.2 			"/>
			<polygon class="st2" points="185.9,159.2 211.4,89.3 213.1,89.3 187.5,159.2 			"/>
			<polygon class="st2" points="182.7,159.2 208.2,89.3 211.4,89.3 185.9,159.2 			"/>
			<polygon class="st2" points="181.6,159.2 179.7,158.5 205,89.3 208.2,89.3 182.7,159.2 			"/>
			<polygon class="st2" points="179.7,158.5 179.2,158.4 179.2,151.2 201.8,89.3 205,89.3 			"/>
			<polygon class="st2" points="179.2,142.5 198.6,89.3 201.8,89.3 179.2,151.2 			"/>
			<polygon class="st2" points="179.2,133.7 195.4,89.3 198.6,89.3 179.2,142.5 			"/>
			<polygon class="st2" points="179.2,124.9 192.2,89.3 195.4,89.3 179.2,133.7 			"/>
			<polygon class="st2" points="179.2,116.2 189,89.3 192.2,89.3 179.2,124.9 			"/>
			<polygon class="st2" points="179.2,107.4 185.8,89.3 189,89.3 179.2,116.2 			"/>
			<polygon class="st2" points="179.2,98.6 182.6,89.3 185.8,89.3 179.2,107.4 			"/>
			<polygon class="st2" points="179.2,89.9 179.4,89.3 182.6,89.3 179.2,98.6 			"/>
			<polygon class="st2" points="179.4,89.3 179.2,89.9 179.2,89.3 			"/>
		</g>
	</g>
	<g>
		<g>
			<defs>
				<path id="SVGID_7_" d="M233.3,96v26.1c0,6.5,2.1,12.1,12.2,12.1c10.1,0,12.2-5.6,12.2-12.1V96c0-1.8,1.5-3.2,3.3-3.2
					c1.7,0,3.1,1.4,3.1,3.2v26.1c0,9.5-3.1,18.2-18.6,18.2c-15.4,0-18.6-8.7-18.6-18.2V96c0-1.8,1.4-3.2,3.2-3.2
					C231.8,92.8,233.3,94.2,233.3,96z"/>
			</defs>
			<use xlink:href="#SVGID_7_"  style="overflow:visible;fill:#2D2C2D;"/>
			<clipPath id="SVGID_8_">
				<use xlink:href="#SVGID_7_"  style="overflow:visible;"/>
			</clipPath>
			<polygon class="st3" points="263.5,140.4 264.1,138.7 264.1,140.4 			"/>
			<polygon class="st3" points="261.8,140.4 264.1,134.1 264.1,138.7 263.5,140.4 			"/>
			<polygon class="st3" points="260.1,140.4 264.1,129.5 264.1,134.1 261.8,140.4 			"/>
			<polygon class="st3" points="258.5,140.4 264.1,124.9 264.1,129.5 260.1,140.4 			"/>
			<polygon class="st3" points="256.8,140.4 264.1,120.3 264.1,124.9 258.5,140.4 			"/>
			<polygon class="st3" points="255.1,140.4 264.1,115.7 264.1,120.3 256.8,140.4 			"/>
			<polygon class="st3" points="253.4,140.4 264.1,111.1 264.1,115.7 255.1,140.4 			"/>
			<polygon class="st3" points="251.7,140.4 264.1,106.5 264.1,111.1 253.4,140.4 			"/>
			<polygon class="st3" points="250,140.4 264.1,101.9 264.1,106.5 251.7,140.4 			"/>
			<polygon class="st3" points="248.3,140.4 264.1,97.3 264.1,101.9 250,140.4 			"/>
			<polygon class="st3" points="246.7,140.4 264.1,92.8 264.1,92.8 264.1,97.3 248.3,140.4 			"/>
			<polygon class="st3" points="245,140.4 262.4,92.8 264.1,92.8 246.7,140.4 			"/>
			<polygon class="st3" points="243.3,140.4 260.7,92.8 262.4,92.8 245,140.4 			"/>
			<polygon class="st3" points="241.6,140.4 259,92.8 260.7,92.8 243.3,140.4 			"/>
			<polygon class="st3" points="239.9,140.4 257.3,92.8 259,92.8 241.6,140.4 			"/>
			<polygon class="st3" points="238.2,140.4 255.7,92.8 257.3,92.8 239.9,140.4 			"/>
			<polygon class="st3" points="236.6,140.4 254,92.8 255.7,92.8 238.2,140.4 			"/>
			<polygon class="st3" points="234.9,140.4 252.3,92.8 254,92.8 236.6,140.4 			"/>
			<polygon class="st3" points="233.2,140.4 250.6,92.8 252.3,92.8 234.9,140.4 			"/>
			<polygon class="st3" points="231.5,140.4 248.9,92.8 250.6,92.8 233.2,140.4 			"/>
			<polygon class="st3" points="229.8,140.4 247.2,92.8 248.9,92.8 231.5,140.4 			"/>
			<polygon class="st3" points="228.1,140.4 245.5,92.8 247.2,92.8 229.8,140.4 			"/>
			<polygon class="st3" points="226.8,139.3 243.9,92.8 245.5,92.8 228.1,140.4 226.8,140.4 			"/>
			<polygon class="st3" points="226.8,134.7 242.2,92.8 243.9,92.8 226.8,139.3 			"/>
			<polygon class="st3" points="226.8,130.1 240.5,92.8 242.2,92.8 226.8,134.7 			"/>
			<polygon class="st3" points="226.8,125.5 238.8,92.8 240.5,92.8 226.8,130.1 			"/>
			<polygon class="st3" points="226.8,120.9 237.1,92.8 238.8,92.8 226.8,125.5 			"/>
			<polygon class="st3" points="226.8,116.3 235.4,92.8 237.1,92.8 226.8,120.9 			"/>
			<polygon class="st3" points="226.8,111.7 233.8,92.8 235.4,92.8 226.8,116.3 			"/>
			<polygon class="st3" points="226.8,107.1 232.1,92.8 233.8,92.8 226.8,111.7 			"/>
			<polygon class="st3" points="226.8,102.5 230.4,92.8 232.1,92.8 226.8,107.1 			"/>
			<polygon class="st3" points="226.8,97.9 228.7,92.8 230.4,92.8 226.8,102.5 			"/>
			<polygon class="st3" points="226.8,93.3 227,92.8 228.7,92.8 226.8,97.9 			"/>
			<polygon class="st3" points="227,92.8 226.8,93.3 226.8,92.8 			"/>
		</g>
	</g>
	<g>
		<g>
			<defs>
				<path id="SVGID_9_" d="M272.4,79.6c0-2.9,1.4-4,3.8-4c2.4,0,3.8,1.1,3.8,4c0,2.4-1.4,3.8-3.8,3.8
					C273.8,83.4,272.4,82,272.4,79.6z M279.4,136.7c0,1.8-1.4,3.2-3.2,3.2c-1.8,0-3.2-1.4-3.2-3.2V96c0-1.8,1.4-3.2,3.2-3.2
					c1.8,0,3.2,1.4,3.2,3.2V136.7z"/>
			</defs>
			<use xlink:href="#SVGID_9_"  style="overflow:visible;fill:#2D2C2D;"/>
			<clipPath id="SVGID_10_">
				<use xlink:href="#SVGID_9_"  style="overflow:visible;"/>
			</clipPath>
			<polygon class="st4" points="278.9,139.9 279.4,138.3 279.4,139.9 			"/>
			<polygon class="st4" points="277.2,139.9 279.4,133.7 279.4,138.3 278.9,139.9 			"/>
			<polygon class="st4" points="275.5,139.9 279.4,129.1 279.4,133.7 277.2,139.9 			"/>
			<polygon class="st4" points="273.8,139.9 279.4,124.5 279.4,129.1 275.5,139.9 			"/>
			<polygon class="st4" points="273,137.4 279.4,119.9 279.4,124.5 273.8,139.9 273,139.9 			"/>
			<polygon class="st4" points="273,132.8 279.4,115.3 279.4,119.9 273,137.4 			"/>
			<polygon class="st4" points="273,128.2 279.4,110.7 279.4,115.3 273,132.8 			"/>
			<polygon class="st4" points="273,123.6 279.4,106.1 279.4,110.7 273,128.2 			"/>
			<polygon class="st4" points="273,119 279.4,101.5 279.4,106.1 273,123.6 			"/>
			<polygon class="st4" points="273,114.4 279.4,96.9 279.4,101.5 273,119 			"/>
			<polygon class="st4" points="273,109.8 279.2,92.8 279.4,92.8 279.4,96.9 273,114.4 			"/>
			<polygon class="st4" points="273,105.2 277.6,92.8 279.2,92.8 273,109.8 			"/>
			<polygon class="st4" points="273,100.6 275.9,92.8 277.6,92.8 273,105.2 			"/>
			<polygon class="st4" points="273,96 274.2,92.8 275.9,92.8 273,100.6 			"/>
			<polygon class="st4" points="274.2,92.8 273,96 273,92.8 			"/>
			<polygon class="st4" points="279.3,83.4 280,81.4 280,83.4 			"/>
			<polygon class="st4" points="277.6,83.4 280,76.8 280,81.4 279.3,83.4 			"/>
			<polygon class="st4" points="275.9,83.4 278.8,75.6 280,75.6 280,76.8 277.6,83.4 			"/>
			<polygon class="st4" points="274.3,83.4 277.1,75.6 278.8,75.6 275.9,83.4 			"/>
			<polygon class="st4" points="272.6,83.4 275.4,75.6 277.1,75.6 274.3,83.4 			"/>
			<polygon class="st4" points="272.4,79.2 273.8,75.6 275.4,75.6 272.6,83.4 272.4,83.4 			"/>
			<polygon class="st4" points="273.8,75.6 272.4,79.2 272.4,75.6 			"/>
		</g>
	</g>
</g>
</svg>
