<svg xmlns="http://www.w3.org/2000/svg" xmlns:xlink="http://www.w3.org/1999/xlink" version="1.1" x="0px" y="0px" viewBox="0 0 100 125" enable-background="new 0 0 100 100" xml:space="preserve"><path fill-rule="evenodd" clip-rule="evenodd" d="M50,80.077c-16.611,0-30.077-13.466-30.077-30.077  c0-16.612,13.466-30.078,30.077-30.078c16.612,0,30.078,13.466,30.078,30.078C80.078,66.612,66.611,80.077,50,80.077z   M50.119,27.198c-12.594-0.065-22.856,10.091-22.921,22.684c-0.066,12.593,10.091,22.856,22.685,22.921  c12.593,0.066,22.855-10.091,22.92-22.685C72.868,37.525,62.712,27.264,50.119,27.198z M49.891,62.128  c-0.788,0.787-1.899,1.035-2.903,0.77c-0.734-0.022-1.462-0.306-2.023-0.867l-9.754-9.754c-1.167-1.167-1.167-3.06,0-4.227  l0.849-0.849c1.167-1.167,3.06-1.167,4.227,0l6.966,6.966l12.336-14.224c1.177-1.177,3.085-1.177,4.263,0l0.849,0.848  c1.177,1.177,1.177,3.086,0,4.263L49.891,62.128z"/></svg>