<svg xmlns="http://www.w3.org/2000/svg" data-name="Layer 1" viewBox="0 0 100 125" x="0px" y="0px"><title>Artboard 21</title><path d="M90.6,32.72v2.67h.07V84.67A13.19,13.19,0,0,1,77.48,97.86h-55a13.2,13.2,0,0,1-13.18-13h0v0s0-.09,0-.14V35.38h0V32.72a8.84,8.84,0,0,1,8.84-8.84h0A8.84,8.84,0,0,1,27,32.71v1.17H35.2A1.79,1.79,0,0,1,37,35.68v3.69a1.79,1.79,0,0,1-1.79,1.79H27V79.44a1.6,1.6,0,0,1-1.6,1.6,1.65,1.65,0,0,1-.87-.26,5.2,5.2,0,0,0-7.93,4.05h0a5.92,5.92,0,0,0,5.91,5.76h55a5.92,5.92,0,0,0,5.91-5.76h-.07a5.2,5.2,0,0,0-7.93-4.05,1.65,1.65,0,0,1-.87.26,1.6,1.6,0,0,1-1.6-1.6V41.16H64.8A1.79,1.79,0,0,1,63,39.37V35.68a1.79,1.79,0,0,1,1.79-1.79h8.12V32.71a8.84,8.84,0,0,1,17.68,0ZM46.25,2.14h7.5a4.79,4.79,0,0,1,4.79,4.79v55a5.46,5.46,0,0,1-.68,2.64L52,75a2.34,2.34,0,0,1-2,1.21h0A2.34,2.34,0,0,1,48,75L42.14,64.54a5.46,5.46,0,0,1-.68-2.64v-55A4.79,4.79,0,0,1,46.25,2.14ZM45.36,62a1.5,1.5,0,0,0,.36,1l2.71,4.89h3.14l2.87-5.18a1.54,1.54,0,0,0,.19-.74V60.72h0a17.3,17.3,0,0,1-4.48.52c-.43,0-.85,0-1.26,0a.49.49,0,0,1-.46-.5V8.48A1.51,1.51,0,0,0,46.58,7a1.55,1.55,0,0,0-1.21,1.54Z"/></svg>